<svg width="40" height="40" viewBox="0 0 40 40" fill="none" xmlns="http://www.w3.org/2000/svg">
<path fill-rule="evenodd" clip-rule="evenodd" d="M20.0002 2.08337C10.1051 2.08337 2.0835 10.1049 2.0835 20C2.0835 29.8952 10.1051 37.9167 20.0002 37.9167C20.086 37.9167 20.184 37.9182 20.2918 37.9197C20.8915 37.9287 21.7897 37.9419 22.5297 37.7349C23.0097 37.6005 23.5527 37.3465 23.9702 36.8457C24.3995 36.3305 24.5835 35.6899 24.5835 35C24.5835 33.598 23.8642 32.5339 23.3717 31.8052L23.3177 31.7254C22.9113 31.1227 22.6613 30.7305 22.5527 30.3182C22.465 29.9852 22.452 29.558 22.7848 28.8924C23.1853 28.0915 23.648 27.7695 24.2685 27.5894C25.0173 27.3719 25.9885 27.3612 27.4693 27.3612H27.4885C28.9045 27.3612 30.6445 27.3612 32.677 27.0709C34.6853 26.7839 36.1157 25.9745 36.9662 24.5689C37.759 23.2584 37.9168 21.6247 37.9168 20C37.9168 10.1049 29.8953 2.08337 20.0002 2.08337ZM11.2302 23.3944C10.3452 23.6327 9.81996 24.5465 10.0571 25.4357C10.2943 26.3249 11.204 26.8524 12.089 26.6142L12.1034 26.6104C12.9885 26.372 13.5137 25.4582 13.2765 24.569C13.0394 23.68 12.1297 23.1524 11.2446 23.3905L11.2302 23.3944ZM12.0835 14.1667C12.0835 12.0956 13.7624 10.4167 15.8335 10.4167C17.9045 10.4167 19.5835 12.0956 19.5835 14.1667C19.5835 16.2378 17.9045 17.9167 15.8335 17.9167C13.7624 17.9167 12.0835 16.2378 12.0835 14.1667ZM27.5002 12.0834C25.4292 12.0834 23.7502 13.7623 23.7502 15.8334C23.7502 17.9044 25.4292 19.5834 27.5002 19.5834C29.5712 19.5834 31.2502 17.9044 31.2502 15.8334C31.2502 13.7623 29.5712 12.0834 27.5002 12.0834Z" fill="white"/>
</svg>
