<svg width="40" height="40" viewBox="0 0 40 40" fill="none" xmlns="http://www.w3.org/2000/svg">
<path fill-rule="evenodd" clip-rule="evenodd" d="M35.7259 4.20214C36.3962 4.83301 36.4282 5.88781 35.7974 6.55809L24.7149 18.3331L22.3567 15.9751L33.37 4.27354C34.0009 3.60326 35.0557 3.57129 35.7259 4.20214ZM18.5235 16.4273C19.0154 16.1322 19.645 16.2097 20.0505 16.6153L24.2172 20.782C24.4517 21.0165 24.5834 21.3343 24.5834 21.6658C24.5834 26.1316 23.0234 29.6953 21.4794 32.1278C20.7069 33.345 19.9332 34.2875 19.3482 34.93C19.066 35.24 18.5465 35.7395 18.3504 35.928L18.3295 35.948C18.0227 36.2116 17.6072 36.3106 17.2145 36.2135C13.712 35.3466 10.5253 33.7978 8.11418 30.9563C7.59957 30.3498 7.12547 29.6905 6.69385 28.9745C7.44308 29.0255 8.36645 29.0408 9.37895 28.9528C11.9488 28.7293 15.2465 27.8225 17.6267 24.9661C18.0687 24.4358 17.997 23.6475 17.4667 23.2056C16.9364 22.7636 16.1482 22.8353 15.7062 23.3656C13.9198 25.5093 11.3841 26.269 9.16237 26.4621C8.06095 26.558 7.07425 26.5101 6.36327 26.438C6.28203 26.4296 6.2048 26.4233 6.12913 26.4171C5.8924 26.3978 5.67085 26.3796 5.38928 26.3071C4.54393 24.1463 3.9879 21.591 3.75377 18.5776C3.72177 18.166 3.8952 17.765 4.21717 17.5063C4.53912 17.2476 4.96805 17.1648 5.3632 17.2848C10.1602 18.7415 14.7626 18.684 18.5235 16.4273ZM8.33333 10.8325C8.33333 9.45176 9.45261 8.33247 10.8333 8.33247C12.214 8.33247 13.3333 9.45176 13.3333 10.8325C13.3333 12.2132 12.214 13.3325 10.8333 13.3325C9.45261 13.3325 8.33333 12.2132 8.33333 10.8325ZM20 6.58644C20 5.70981 19.2539 4.99914 18.3334 4.99914C17.4129 4.99914 16.6667 5.70981 16.6667 6.58644V6.74517C16.6667 7.62182 17.4129 8.33247 18.3334 8.33247C19.2539 8.33247 20 7.62182 20 6.74517V6.58644Z" fill="white"/>
</svg>
