<svg width="40" height="40" viewBox="0 0 40 40" fill="none" xmlns="http://www.w3.org/2000/svg">
<path fill-rule="evenodd" clip-rule="evenodd" d="M2.70508 21.6667C2.70508 20.7462 3.45126 20 4.37174 20H9.37174C10.2922 20 11.0384 20.7462 11.0384 21.6667C11.0384 22.5872 10.2922 23.3333 9.37174 23.3333H4.37174C3.45126 23.3333 2.70508 22.5872 2.70508 21.6667ZM2.70508 26.6667C2.70508 25.7462 3.45126 25 4.37174 25H9.37174C10.2922 25 11.0384 25.7462 11.0384 26.6667C11.0384 27.5872 10.2922 28.3333 9.37174 28.3333H4.37174C3.45126 28.3333 2.70508 27.5872 2.70508 26.6667Z" fill="white"/>
<path fill-rule="evenodd" clip-rule="evenodd" d="M2.70508 31.6667C2.70508 30.7462 3.45126 30 4.37174 30H9.37174C10.2922 30 11.0384 30.7462 11.0384 31.6667C11.0384 32.5872 10.2922 33.3333 9.37174 33.3333H4.37174C3.45126 33.3333 2.70508 32.5872 2.70508 31.6667Z" fill="white"/>
<path fill-rule="evenodd" clip-rule="evenodd" d="M21.6985 2.22342C21.2783 2.03669 20.7988 2.03669 20.3787 2.22342L5.75359 8.72342C5.64346 8.77237 5.54066 8.83264 5.44634 8.90249C5.05827 9.11464 4.79507 9.52661 4.79507 10V10.0628C4.79076 10.1109 4.78857 10.1594 4.78857 10.2084C4.78857 10.2573 4.79076 10.3059 4.79507 10.354V17.5H9.37191C11.6731 17.5 13.5386 19.3655 13.5386 21.6667C13.5386 22.6047 13.2286 23.4704 12.7055 24.1667C13.2286 24.863 13.5386 25.7287 13.5386 26.6667C13.5386 27.5894 13.2386 28.442 12.7309 29.1325C13.2386 29.823 13.5386 30.6757 13.5386 31.5984C13.5386 32.6147 13.1747 33.546 12.57 34.2692L20.5307 37.8089C20.8538 37.9525 21.2228 37.9527 21.546 37.809L36.5525 31.1424C37.0042 30.9419 37.2952 30.494 37.2952 30V10.0227C37.2952 9.57449 37.0592 9.18142 36.7048 8.96077C36.5912 8.86581 36.4633 8.78552 36.3235 8.72342L21.6985 2.22342ZM13.4403 11.5531L10.4147 10.2084L21.0385 5.48664L24.0642 6.83136L13.4403 11.5531ZM17.544 13.377L21.0385 14.9301L31.6625 10.2084L28.1678 8.65522L17.544 13.377Z" fill="white"/>
</svg>
