<svg width="40" height="40" viewBox="0 0 40 40" fill="none" xmlns="http://www.w3.org/2000/svg">
<path d="M22.5995 3.2748C21.0187 2.17128 18.9164 2.175 17.3394 3.2841L4.3398 12.4271C2.9152 13.429 2.18158 15.1519 2.44653 16.8733L5.03035 33.6606C5.37443 35.8961 7.29776 37.5463 9.55955 37.5466L11.2908 37.547C11.0144 37.304 10.7712 37.062 10.5675 36.8236C9.34543 35.3945 8.98265 33.823 9.21735 32.2173C9.4393 30.6988 10.227 29.53 11.1554 28.5968C11.6851 28.0643 12.2937 27.577 12.9154 27.1231C11.8078 24.726 11.8786 22.3041 12.9681 20.2786C14.2292 17.9341 16.7415 16.3296 19.824 15.8731C21.6675 15.6002 22.2439 14.8195 22.4509 14.1894C22.704 13.4189 22.5339 12.466 22.2364 11.8175C22.0224 11.3512 22.115 10.8015 22.47 10.4311C22.8252 10.0608 23.3705 9.945 23.8454 10.1391C26.3669 11.1697 28.1449 13.8556 29.0004 16.6236C29.8577 19.3981 29.9212 22.6708 28.5479 25.1601C26.7484 28.8615 23.5682 30.4963 20.6204 30.8181C19.1549 30.9781 17.7257 30.8183 16.5199 30.4185C15.9905 30.2431 15.4757 30.0113 15.0124 29.7206C14.4254 30.1423 13.9267 30.5375 13.5184 30.9478C12.9048 31.5645 12.6012 32.114 12.5156 32.6993C12.4126 33.4043 12.5367 33.9976 13.1009 34.6575C13.7336 35.3973 15.5168 36.589 17.808 37.5481L29.8699 37.5503C32.0759 37.5506 33.9692 35.9793 34.3755 33.811L37.5282 16.9846C37.8599 15.2141 37.1237 13.4135 35.6467 12.3824L22.5995 3.2748Z" fill="white"/>
</svg>
