<svg width="40" height="40" viewBox="0 0 40 40" fill="none" xmlns="http://www.w3.org/2000/svg">
<path d="M28.3334 34.1667C30.6346 34.1667 32.5001 32.3012 32.5001 30C32.5001 27.6989 30.6346 25.8334 28.3334 25.8334C26.0322 25.8334 24.1667 27.6989 24.1667 30C24.1667 32.3012 26.0322 34.1667 28.3334 34.1667Z" fill="white"/>
<path d="M11.6667 34.1667C13.9679 34.1667 15.8333 32.3012 15.8333 30C15.8333 27.6989 13.9679 25.8334 11.6667 25.8334C9.36548 25.8334 7.5 27.6989 7.5 30C7.5 32.3012 9.36548 34.1667 11.6667 34.1667Z" fill="white"/>
<path fill-rule="evenodd" clip-rule="evenodd" d="M1.66675 13.3333C1.66675 12.4128 2.41295 11.6666 3.33341 11.6666H13.3334C14.2539 11.6666 15.0001 12.4128 15.0001 13.3333C15.0001 14.2538 14.2539 15 13.3334 15H3.33341C2.41295 15 1.66675 14.2538 1.66675 13.3333ZM1.66675 18.3333C1.66675 17.4128 2.41295 16.6666 3.33341 16.6666H10.0001C10.9205 16.6666 11.6667 17.4128 11.6667 18.3333C11.6667 19.2538 10.9205 20 10.0001 20H3.33341C2.41295 20 1.66675 19.2538 1.66675 18.3333Z" fill="white"/>
<path fill-rule="evenodd" clip-rule="evenodd" d="M1.66675 8.33392C1.66642 6.49275 3.1589 5 5.00008 5H21.6664C23.5074 5 24.9997 6.49238 24.9997 8.33333L29.7792 8.33337C31.5354 8.33337 33.1629 9.25487 34.0666 10.7609L38.0956 17.4758C38.2511 17.7348 38.3331 18.0313 38.3331 18.3333V28.3333C38.3331 30.1743 36.8407 31.6667 34.9997 31.6667L34.2726 31.6653C34.4207 31.1357 34.5001 30.5772 34.5001 30C34.5001 26.5942 31.7392 23.8333 28.3334 23.8333C24.9276 23.8333 22.1667 26.5942 22.1667 30C22.1667 30.5697 22.2439 31.1213 22.3886 31.645L17.6139 31.6367C17.7569 31.1155 17.8334 30.5667 17.8334 30C17.8334 26.5942 15.0725 23.8333 11.6667 23.8333C8.261 23.8333 5.50008 26.5942 5.50008 30C5.50008 30.5697 5.57731 31.1212 5.72186 31.6448L5.03365 31.6512C3.1808 31.6682 1.66968 30.1708 1.66968 28.318L1.6687 21.6012C2.16826 21.8562 2.73405 22 3.33341 22H10.0001C12.0251 22 13.6667 20.3583 13.6667 18.3333C13.6667 17.8627 13.578 17.4125 13.4164 16.999C15.4031 16.955 17.0001 15.3306 17.0001 13.3333C17.0001 11.3083 15.3585 9.66667 13.3334 9.66667H3.33341C2.73336 9.66667 2.16698 9.8108 1.667 10.0663L1.66675 8.33392ZM33.7227 16.6667H24.9997V11.6667L29.7791 11.6667C30.3646 11.6667 30.9071 11.9739 31.2082 12.4759L33.7227 16.6667Z" fill="white"/>
<path d="M3.33341 20C2.43668 20 1.70536 19.2918 1.66823 18.4041L1.66821 18.263C1.6923 17.6831 2.0125 17.18 2.48153 16.9005C2.73081 16.752 3.02215 16.6666 3.33341 16.6666H10.0001C10.3753 16.6666 10.7217 16.7906 11.0002 17C11.405 17.304 11.6667 17.7881 11.6667 18.3333C11.6667 19.2538 10.9205 20 10.0001 20H3.33341Z" fill="white"/>
<path d="M1.6675 13.3835C1.6849 13.9717 2.00706 14.4834 2.48153 14.7661C2.73081 14.9146 3.02215 15 3.33341 15H13.3334C14.2539 15 15.0001 14.2538 15.0001 13.3333C15.0001 12.4128 14.2539 11.6666 13.3334 11.6666H3.33341C2.42956 11.6666 1.69376 12.3861 1.66748 13.2836L1.6675 13.3835Z" fill="white"/>
</svg>
