<svg width="40" height="40" viewBox="0 0 40 40" fill="none" xmlns="http://www.w3.org/2000/svg">
<path d="M28.9911 10.0884C29.4028 10.9117 29.069 11.9128 28.2458 12.3245C24.9383 13.9782 21.34 17.4582 18.2466 21.0367C17.6448 21.7331 16.5922 21.8097 15.8959 21.2077C15.1995 20.6057 15.1229 19.5532 15.7249 18.8569C18.8621 15.2275 22.8205 11.3103 26.755 9.34307C27.5783 8.93142 28.5795 9.26513 28.9911 10.0884Z" fill="white"/>
<path d="M2.64406 22.3789C3.0179 21.5377 4.00283 21.1589 4.84398 21.5327C4.95696 21.5842 5.24727 21.7299 5.50458 21.9014C5.86117 22.1284 6.3435 22.4727 6.9253 22.9769C7.78473 23.7217 8.85725 24.8121 10.0607 26.3831C10.5862 26.1044 11.2442 26.1169 11.7725 26.4717C12.5365 26.9852 12.7397 28.0207 12.2263 28.7847C11.9599 29.1812 11.7585 29.4949 11.6253 29.7067C11.5587 29.8127 11.5092 29.8931 11.4772 29.9454L11.4425 30.0029L11.4351 30.0152C11.143 30.5081 10.6174 30.8177 10.0447 30.8331C9.47193 30.8482 8.9315 30.5682 8.61367 30.0914C7.02255 27.7047 5.66125 26.2924 4.7422 25.4959C4.28233 25.0972 3.93133 24.8514 3.715 24.7137C3.60673 24.6447 3.5318 24.6027 3.49338 24.5821C3.4798 24.5749 3.47076 24.5702 3.4664 24.5681C2.64193 24.1864 2.27376 23.2121 2.64406 22.3789Z" fill="white"/>
<path d="M37.3244 10.0884C37.7361 10.9117 37.4022 11.9128 36.5791 12.3245C32.7562 14.2358 28.5727 18.5671 25.2471 22.6201C23.6109 24.6142 22.2284 26.4831 21.2549 27.8536C20.7688 28.5382 20.3856 29.0969 20.1252 29.4826C19.9951 29.6754 19.8958 29.8249 19.8296 29.9252L19.7554 30.0381L19.7376 30.0654L19.7336 30.0714C19.4288 30.5426 18.9062 30.8299 18.3451 30.8337C17.7838 30.8376 17.2582 30.5586 16.9469 30.0916C15.3558 27.7049 13.9945 26.2926 13.0755 25.4961C12.6156 25.0974 12.2646 24.8516 12.0482 24.7139C11.94 24.6449 11.8651 24.6029 11.8266 24.5822C11.8131 24.5751 11.804 24.5704 11.7997 24.5682C10.9752 24.1866 10.607 23.2122 10.9773 22.3791C11.3512 21.5379 12.3361 21.1591 13.1772 21.5329C13.3114 21.5991 13.6313 21.7652 13.8378 21.9016C14.1944 22.1286 14.6767 22.4729 15.2585 22.9771C16.0953 23.7022 17.1342 24.7551 18.2992 26.2602C18.3757 26.1514 18.4551 26.0391 18.5374 25.9234C19.5431 24.5074 20.9731 22.5742 22.6702 20.5057C26.0112 16.4339 30.5777 11.5984 35.0882 9.34307C35.9116 8.93142 36.9127 9.26513 37.3244 10.0884Z" fill="white"/>
</svg>
