<svg width="40" height="40" viewBox="0 0 40 40" fill="none" xmlns="http://www.w3.org/2000/svg">
<path fill-rule="evenodd" clip-rule="evenodd" d="M21.4712 2.62692C22.094 2.88488 22.5 3.49262 22.5 4.16672V6.66672H28.3333C31.0948 6.66672 33.3333 8.90528 33.3333 11.6667V27.3958C35.0405 28.0625 36.25 29.7233 36.25 31.6667C36.25 34.198 34.198 36.25 31.6667 36.25C29.1353 36.25 27.0833 34.198 27.0833 31.6667C27.0833 29.7233 28.2928 28.0625 30 27.3958V11.6667C30 10.7462 29.2538 10.0001 28.3333 10.0001H22.5V12.5001C22.5 13.1742 22.094 13.7819 21.4712 14.0399C20.8483 14.2978 20.1315 14.1552 19.6548 13.6786L15.4881 9.5119C14.8373 8.86102 14.8373 7.80575 15.4881 7.15487L19.6548 2.9882C20.1315 2.51153 20.8483 2.36895 21.4712 2.62692ZM9.99837 12.6049C11.7065 11.9386 12.9167 10.2773 12.9167 8.33333C12.9167 5.80203 10.8646 3.75 8.33333 3.75C5.80203 3.75 3.75 5.80203 3.75 8.33333C3.75 10.276 4.95867 11.9364 6.66503 12.6036V28.3333C6.66503 31.0948 8.90362 33.3333 11.665 33.3333H17.4983V35.8333C17.4983 36.5075 17.9045 37.1152 18.5272 37.3732C19.15 37.6312 19.8668 37.4885 20.3435 37.0118L24.5102 32.8452C25.1612 32.1943 25.1612 31.139 24.5102 30.4882L20.3435 26.3215C19.8668 25.8448 19.15 25.7022 18.5272 25.9602C17.9045 26.2182 17.4983 26.8258 17.4983 27.5V30H11.665C10.7446 30 9.99837 29.2538 9.99837 28.3333V12.6049Z" fill="white"/>
</svg>
