<svg width="40" height="40" viewBox="0 0 40 40" fill="none" xmlns="http://www.w3.org/2000/svg">
<path fill-rule="evenodd" clip-rule="evenodd" d="M7.49984 2.91675C4.96854 2.91675 2.9165 4.96878 2.9165 7.50008V32.5001C2.9165 35.0314 4.96854 37.0834 7.49984 37.0834H32.4998C35.0312 37.0834 37.0832 35.0314 37.0832 32.5001V7.50008C37.0832 4.96878 35.0312 2.91675 32.4998 2.91675H7.49984ZM27.845 12.1549C27.1942 11.504 26.1388 11.504 25.488 12.1549L19.9998 17.6431L16.1784 13.8216C15.5275 13.1707 14.4722 13.1707 13.8213 13.8216C13.1705 14.4724 13.1705 15.5277 13.8213 16.1786L17.6428 20.0001L17.1547 20.4882C16.5038 21.1391 16.5038 22.1944 17.1547 22.8452C17.8055 23.4961 18.8608 23.4961 19.5117 22.8452L19.9998 22.3571L20.488 22.8452C21.1388 23.4961 22.1942 23.4961 22.845 22.8452C23.4958 22.1944 23.4958 21.1391 22.845 20.4882L22.3568 20.0001L27.845 14.5119C28.4958 13.861 28.4958 12.8058 27.845 12.1549Z" fill="white"/>
</svg>
